<svg id="Layer_1" data-name="Layer 1" xmlns="http://www.w3.org/2000/svg" viewBox="0 0 123 108.8"><title>hb-logo-primary-emblem-gold</title><polygon id="Fill-1" points="67.8 0.8 67.8 2.6 76 2.6 76 19.5 87.8 19.5 87.8 2.6 95.9 2.6 95.9 0.8 67.8 0.8" fill="#cb9e5a" fill-rule="evenodd"/><polygon id="Fill-2" points="72.5 85.5 19.7 85.5 19.7 53.3 26.7 53.3 26.7 51.5 19.7 51.5 19.7 23.6 26.7 23.6 26.7 21.8 0 21.8 0 23.6 8.1 23.6 8.1 85.5 0 85.5 0 87.3 72.5 87.3 72.5 85.5" fill="#cb9e5a" fill-rule="evenodd"/><polygon id="Fill-3" points="40.9 92 29.3 92 29.3 106.6 21.1 106.6 21.1 108.4 49.1 108.4 49.1 106.6 40.9 106.6 40.9 92" fill="#cb9e5a" fill-rule="evenodd"/><path id="Fill-4" d="M100.8,52.3c9.4-1.7,15.3-7.2,15.3-14.6s-3.9-13.4-22.5-15.4a70.3,70.3,0,0,0-8.7-.5H45.2v1.9H84.9c4.8,0,8.9.8,12.2,2.6h.2c3.6,2.2,5.3,5.7,5.3,11.2A13.6,13.6,0,0,1,91.8,51.4v2.3c10.7.9,17.6,6.9,17.6,15.6S102.9,85,91.8,85.9v1.9c20.7-.5,31.2-6.7,31.2-18.5s-11.2-15.6-22.2-17" fill="#cb9e5a" fill-rule="evenodd"/><polygon id="Fill-6" points="88.1 107 88.1 27.4 76.3 27.4 76.3 51.8 41.5 51.8 41.5 1.8 49.8 1.8 49.8 0 21.7 0 21.7 1.8 29.9 1.8 29.9 82.3 41.5 82.3 41.5 53.6 76.3 53.6 76.3 107 68.1 107 68.1 108.8 96.2 108.8 96.2 107 88.1 107" fill="#cb9e5a" fill-rule="evenodd"/></svg>